<?xml version="1.0" standalone="no"?><!DOCTYPE svg PUBLIC "-//W3C//DTD SVG 1.1//EN" "http://www.w3.org/Graphics/SVG/1.1/DTD/svg11.dtd"><svg t="1680339277857" class="icon" viewBox="0 0 1024 1024" version="1.1" xmlns="http://www.w3.org/2000/svg" p-id="1436" xmlns:xlink="http://www.w3.org/1999/xlink" width="200" height="200"><path d="M881.140625 195.59375H776.49584961c0-43.6706543-35.4309082-79.1015625-79.1015625-79.1015625h-13.18359375c-43.6706543 0-79.1015625 35.4309082-79.1015625 79.1015625H419.71484375c0-21.83532715-8.81652833-41.61071778-23.15368653-55.94787598C382.22399902 125.30871582 362.44860839 116.4921875 340.61328125 116.4921875h-13.18359375c-43.6706543 0-79.1015625 35.4309082-79.1015625 79.1015625H142.859375c-29.08630372 0-52.734375 23.56567383-52.734375 52.734375v606.4453125c0 29.08630372 23.64807129 52.734375 52.734375 52.734375h738.28125c29.08630372 0 52.734375-23.64807129 52.734375-52.734375V248.328125c0-29.16870117-23.64807129-52.734375-52.734375-52.734375z m-223.29711914 6.59179688c0-18.20983887 14.74914551-32.95898438 32.95898437-32.95898438s32.95898438 14.74914551 32.95898438 32.95898437v65.91796875c0 18.20983887-14.74914551 32.95898438-32.95898438 32.95898438-9.0637207 0-17.3034668-3.70788575-23.31848145-9.64050293C661.55139161 285.40698242 657.84350586 277.16723633 657.84350586 268.10351562v-65.91796874z m-356.78100586-1e-8c0-18.20983887 14.74914551-32.95898438 32.95898438-32.95898437s32.95898438 14.74914551 32.95898437 32.95898438v65.91796874c0 18.20983887-14.74914551 32.95898438-32.95898438 32.95898438-9.0637207 0-17.3034668-3.70788575-23.31848145-9.64050293C304.77038574 285.40698242 301.0625 277.16723633 301.0625 268.10351562v-65.91796874z m580.078125 626.22070313c0 14.58435059-11.78283692 26.3671875-26.3671875 26.3671875H169.2265625c-14.58435059 0-26.3671875-11.78283692-26.3671875-26.3671875V459.265625h738.28125v369.140625z" p-id="1437"></path></svg>