<?xml version="1.0" standalone="no"?>
<!DOCTYPE svg PUBLIC "-//W3C//DTD SVG 1.1//EN" "http://www.w3.org/Graphics/SVG/1.1/DTD/svg11.dtd"><svg t="1680015412016"
  class="icon" viewBox="0 0 1024 1024" version="1.1" xmlns="http://www.w3.org/2000/svg" p-id="1422"
  xmlns:xlink="http://www.w3.org/1999/xlink" width="200" height="200">
  <path
    d="M344.66666666 653.33333333C327.86666666 653.33333333 314.66666666 666.53333333 314.66666666 683.33333333 314.66666666 700.13333333 327.86666666 713.33333333 344.66666666 713.33333333 361.46666666 713.33333333 374.66666666 700.13333333 374.66666666 683.33333333 374.66666666 666.53333333 361.46666666 653.33333333 344.66666666 653.33333333zM344.66666666 293.33333333C327.86666666 293.33333333 314.66666666 306.53333333 314.66666666 323.33333333 314.66666666 340.13333333 327.86666666 353.33333333 344.66666666 353.33333333 361.46666666 353.33333333 374.66666666 340.13333333 374.66666666 323.33333333 374.66666666 306.53333333 361.46666666 293.33333333 344.66666666 293.33333333zM344.66666666 473.33333333C327.86666666 473.33333333 314.66666666 486.53333333 314.66666666 503.33333333 314.66666666 520.13333333 327.86666666 533.33333333 344.66666666 533.33333333 361.46666666 533.33333333 374.66666666 520.13333333 374.66666666 503.33333333 374.66666666 486.53333333 361.46666666 473.33333333 344.66666666 473.33333333zM794.66666666 113.33333333L254.66666666 113.33333333C188.66666666 113.33333333 134.66666666 167.33333333 134.66666666 233.33333333l0 540c0 66 54 120 120 120l540 0c66 0 120-54 120-120L914.66666666 233.33333333C914.66666666 167.33333333 860.66666666 113.33333333 794.66666666 113.33333333zM854.66666666 773.33333333c0 33-27 60-60 60L254.66666666 833.33333333c-33 0-60-27-60-60L194.66666666 233.33333333c0-33 27-60 60-60l540 0c33 0 60 27 60 60L854.66666666 773.33333333zM704.66666666 293.33333333l-240 0C447.86666666 293.33333333 434.66666666 306.53333333 434.66666666 323.33333333 434.66666666 340.13333333 447.86666666 353.33333333 464.66666666 353.33333333l240 0C721.46666666 353.33333333 734.66666666 340.13333333 734.66666666 323.33333333 734.66666666 306.53333333 721.46666666 293.33333333 704.66666666 293.33333333zM704.66666666 473.33333333l-240 0C447.86666666 473.33333333 434.66666666 486.53333333 434.66666666 503.33333333 434.66666666 520.13333333 447.86666666 533.33333333 464.66666666 533.33333333l240 0C721.46666666 533.33333333 734.66666666 520.13333333 734.66666666 503.33333333 734.66666666 486.53333333 721.46666666 473.33333333 704.66666666 473.33333333zM704.66666666 653.33333333l-240 0C447.86666666 653.33333333 434.66666666 666.53333333 434.66666666 683.33333333 434.66666666 700.13333333 447.86666666 713.33333333 464.66666666 713.33333333l240 0c16.8 0 30-13.2 30-30C734.66666666 666.53333333 721.46666666 653.33333333 704.66666666 653.33333333z"
    p-id="1423"></path>
</svg>