<?xml version="1.0" standalone="no"?><!DOCTYPE svg PUBLIC "-//W3C//DTD SVG 1.1//EN" "http://www.w3.org/Graphics/SVG/1.1/DTD/svg11.dtd"><svg t="1680016012550" class="icon" viewBox="0 0 1024 1024" version="1.1" xmlns="http://www.w3.org/2000/svg" p-id="1715" xmlns:xlink="http://www.w3.org/1999/xlink" width="200" height="200"><path d="M832 840.533333v-400.853333a33.621333 33.621333 0 0 1 34.133333-34.133333 31.530667 31.530667 0 0 1 34.133334 34.133333V840.533333a37.077333 37.077333 0 0 1-34.133334 34.133334 33.664 33.664 0 0 1-34.133333-34.133334z m-226.133333 0v-217.6a33.664 33.664 0 0 1 34.133333-34.133333 31.402667 31.402667 0 0 1 34.133333 34.133333v217.6c-4.266667 17.066667-17.066667 34.133333-34.133333 34.133334a33.792 33.792 0 0 1-34.261333-34.133334z m-226.133334 0v-362.666666a33.664 33.664 0 0 1 34.133334-34.133334 31.232 31.232 0 0 1 34.133333 34.133334v362.666666c-4.266667 17.066667-17.066667 34.133333-34.133333 34.133334a33.877333 33.877333 0 0 1-34.304-34.133334z m-225.92 0v-153.6a33.493333 33.493333 0 0 1 34.133334-34.133333 31.445333 31.445333 0 0 1 34.133333 34.133333v153.6c-4.266667 17.066667-17.066667 34.133333-34.133333 34.133334a33.664 33.664 0 0 1-34.304-34.133334z m-34.133333-298.666666a33.877333 33.877333 0 0 1 0-46.933334l285.866667-281.6a28.373333 28.373333 0 0 1 42.666666 0l183.466667 174.933334 234.666667-230.4a33.194667 33.194667 0 0 1 46.933333 46.933333l-256 256a33.621333 33.621333 0 0 1-46.933333 0L427.093333 285.866667l-264.746666 260.266666a46.549333 46.549333 0 0 1-21.333334 4.266667 32 32 0 0 1-21.717333-8.533333z" p-id="1716"></path></svg>