<?xml version="1.0" standalone="no"?><!DOCTYPE svg PUBLIC "-//W3C//DTD SVG 1.1//EN" "http://www.w3.org/Graphics/SVG/1.1/DTD/svg11.dtd"><svg t="1680015997551" class="icon" viewBox="0 0 1024 1024" version="1.1" xmlns="http://www.w3.org/2000/svg" p-id="1568" xmlns:xlink="http://www.w3.org/1999/xlink" width="200" height="200"><path d="M515.78 94.34a419.52 419.52 0 0 0-419.04 419.04c0 231.12 187.98 419.04 419.04 419.04s419.04-187.98 419.04-419.04a419.52 419.52 0 0 0-419.04-419.04z m0 778.14c-198 0-359.04-161.1-359.04-359.04S317.84 154.4 515.78 154.4s359.04 161.1 359.04 359.04-161.1 359.04-359.04 359.04z" p-id="1569"></path><path d="M688.28 483.38H545.78V340.88a30 30 0 0 0-60 0v142.5H343.28a30 30 0 0 0 0 60h142.5v142.5a30 30 0 0 0 60 0V543.38h142.5a30 30 0 0 0 0-60z" p-id="1570"></path></svg>