<?xml version="1.0" standalone="no"?><!DOCTYPE svg PUBLIC "-//W3C//DTD SVG 1.1//EN" "http://www.w3.org/Graphics/SVG/1.1/DTD/svg11.dtd"><svg t="1680449841129" class="icon" viewBox="0 0 1024 1024" version="1.1" xmlns="http://www.w3.org/2000/svg" p-id="1358" xmlns:xlink="http://www.w3.org/1999/xlink" width="200" height="200"><path d="M872.6 476h-632l232.2-224.2c14.3-13.8 14.7-36.6 0.9-50.9-13.8-14.3-36.6-14.7-50.9-0.9l-294 283.9c-1.1 0.9-2.2 1.9-3.2 3-6.6 6.8-9.9 15.6-10.1 24.4v1.4c0.2 8.8 3.5 17.6 10.1 24.4 1 1.1 2.1 2 3.2 3l294 283.9c14.3 13.8 37.1 13.4 50.9-0.9 13.8-14.3 13.4-37.1-0.9-50.9L240.6 548h632c19.9 0 36-16.1 36-36s-16.1-36-36-36z" p-id="1359"></path></svg>