<?xml version="1.0" standalone="no"?><!DOCTYPE svg PUBLIC "-//W3C//DTD SVG 1.1//EN" "http://www.w3.org/Graphics/SVG/1.1/DTD/svg11.dtd"><svg t="1680446869476" class="icon" viewBox="0 0 1024 1024" version="1.1" xmlns="http://www.w3.org/2000/svg" p-id="1379" xmlns:xlink="http://www.w3.org/1999/xlink" width="200" height="200"><path d="M875.4125 873.6078125c-6.785625-101.3746875-56.8875-195.691875-137.446875-258.78l-4.8421875-3.345-0.0440625 0.065625c-4.5815625-2.8021875-9.804375-4.3003125-15.1809375-4.3003125-18.470625 0-29.491875 8.904375-29.491875 23.82375 0 8.686875 4.0171875 16.8515625 10.7596875 22.3903125l-0.075 0.1303125 4.276875 3.061875c67.5609375 48.2990625 105.598125 121.5496875 113.0475 217.7559375l0.0796875 1.05a29.5378125 29.5378125 0 0 0-0.10875 2.44875c0 16.2571875 13.179375 29.4375 29.4375 29.4375 15.7125 0 28.546875-12.309375 29.390625-27.8109375h0.585l-0.38625-5.9278125z m-94.80375-493.05c0-146.3503125-120.496875-265.423125-268.6171875-265.423125S243.3734375 234.2075 243.3734375 380.55875c0 78.853125 34.8665625 152.409375 95.979375 203.11875-109.7034375 58.5496875-182.52 170.240625-190.7625 293.5490625l-0.339375 5.1403125c-0.0065625 0.1059375-0.015 0.211875-0.020625 0.31875l-0.0309375 0.46875h0.01875c-0.0084375 0.2503125-0.01875 0.4996875-0.01875 0.751875 0 13.7840625 11.173125 24.958125 24.958125 24.958125 13.7840625 0 24.9590625-11.173125 24.9590625-24.958125 0-0.253125-0.0121875-0.5015625-0.01875-0.751875h0.519375l0.3909375-5.12625c9.045-117.185625 83.3165625-219.796875 189.48-262.0809375 31.696875 14.724375 80.08125 30.05625 123.4828125 30.05625 40.209375 0 79.25625-8.859375 116.4365625-26.5378125l27.2334375-15.8090625 22.2375-14.5940625c65.278125-50.8153125 102.7303125-126.825 102.7303125-208.50375zM511.990625 592.56125c-118.3575 0-214.640625-95.120625-214.640625-212.023125 0-116.8809375 96.2821875-211.98 214.640625-211.98 118.36875 0 214.6621875 95.0990625 214.6621875 211.98-0.0009375 116.9025-96.294375 212.023125-214.6621875 212.023125z" p-id="1380"></path></svg>